<mxfile host="app.diagrams.net" modified="2023-09-15T07:51:37.507Z" agent="Mozilla/5.0 (Windows NT 10.0; Win64; x64) AppleWebKit/537.36 (KHTML, like Gecko) Chrome/116.0.0.0 Safari/537.36" etag="glhwtuGZHmLA-EEVqZxg" version="21.7.5" type="github">
  <diagram id="sQ8EXhfYu_Z4RW1TYD9f" name="Page-1">
    <mxGraphModel dx="1434" dy="758" grid="1" gridSize="10" guides="1" tooltips="1" connect="0" arrows="1" fold="1" page="1" pageScale="1" pageWidth="827" pageHeight="1169" math="0" shadow="0">
      <root>
        <mxCell id="0" />
        <mxCell id="1" parent="0" />
        <mxCell id="wOnGFkAYj0Utu0_wV-MN-16" value="구현" style="swimlane;fillColor=#dae8fc;strokeColor=#6c8ebf;" parent="1" vertex="1">
          <mxGeometry x="270" y="50" width="330" height="660" as="geometry" />
        </mxCell>
        <mxCell id="9A0mLHsorhuxDrabdEOj-9" value="에러 | 수정" style="swimlane;fillColor=#f8cecc;strokeColor=#b85450;startSize=23;" parent="wOnGFkAYj0Utu0_wV-MN-16" vertex="1">
          <mxGeometry x="339" y="390" width="511" height="270" as="geometry">
            <mxRectangle x="620" y="440" width="90" height="23" as="alternateBounds" />
          </mxGeometry>
        </mxCell>
        <mxCell id="wOnGFkAYj0Utu0_wV-MN-18" value="고려" style="swimlane;fillColor=#e1d5e7;strokeColor=#9673a6;" parent="wOnGFkAYj0Utu0_wV-MN-16" vertex="1">
          <mxGeometry x="340" y="1" width="231" height="380" as="geometry" />
        </mxCell>
        <mxCell id="8IGrAw701jnbkH6kilL0-5" value="잠김 상태일 때 토스트 로컬 작업" style="rounded=1;whiteSpace=wrap;html=1;" parent="wOnGFkAYj0Utu0_wV-MN-16" vertex="1">
          <mxGeometry x="20" y="110" width="159" height="60" as="geometry" />
        </mxCell>
        <mxCell id="WcDFybzWImXP3FC_hpMs-2" value="이벤트 병렬 처리 가능하도록 수정" style="rounded=1;whiteSpace=wrap;html=1;" vertex="1" parent="wOnGFkAYj0Utu0_wV-MN-16">
          <mxGeometry x="20" y="180" width="159" height="60" as="geometry" />
        </mxCell>
        <mxCell id="wOnGFkAYj0Utu0_wV-MN-17" value="분석 | 논의" style="swimlane;strokeColor=#82b366;fillColor=#D5E8D4;" parent="1" vertex="1">
          <mxGeometry x="49" y="50" width="211" height="270" as="geometry" />
        </mxCell>
        <mxCell id="MTrl5ynQiznJmTlUDSWs-4" value="대기 | 요청" style="swimlane;strokeColor=#d79b00;fillColor=#ffe6cc;" parent="1" vertex="1">
          <mxGeometry x="49" y="330" width="210" height="380" as="geometry" />
        </mxCell>
        <mxCell id="hDPYIisuoytdxOGGVnbc-3" value="    폐기 | 완료" style="swimlane;strokeColor=#666666;fillColor=#f5f5f5;fontColor=#333333;align=left;" parent="1" vertex="1">
          <mxGeometry x="1130" y="50" width="610" height="940" as="geometry">
            <mxRectangle x="1130" y="50" width="90" height="23" as="alternateBounds" />
          </mxGeometry>
        </mxCell>
        <mxCell id="8IGrAw701jnbkH6kilL0-1" value="버튼 On/Off 기능 작성" style="rounded=1;whiteSpace=wrap;html=1;" parent="hDPYIisuoytdxOGGVnbc-3" vertex="1">
          <mxGeometry x="10" y="30" width="159" height="60" as="geometry" />
        </mxCell>
        <mxCell id="8IGrAw701jnbkH6kilL0-4" value="버튼 로컬 작업" style="rounded=1;whiteSpace=wrap;html=1;" parent="hDPYIisuoytdxOGGVnbc-3" vertex="1">
          <mxGeometry x="10" y="100" width="159" height="60" as="geometry" />
        </mxCell>
        <mxCell id="8IGrAw701jnbkH6kilL0-6" value="배율 낚시 안내 팝업 출력" style="rounded=1;whiteSpace=wrap;html=1;" parent="hDPYIisuoytdxOGGVnbc-3" vertex="1">
          <mxGeometry x="10" y="170" width="159" height="60" as="geometry" />
        </mxCell>
        <mxCell id="8IGrAw701jnbkH6kilL0-7" value="배율 낚시 안내 팝업&lt;br&gt;오늘 하루 안보기 기능 추가하기" style="rounded=1;whiteSpace=wrap;html=1;" parent="hDPYIisuoytdxOGGVnbc-3" vertex="1">
          <mxGeometry x="10" y="240" width="159" height="60" as="geometry" />
        </mxCell>
        <mxCell id="WcDFybzWImXP3FC_hpMs-1" value="배율 낚시 안내 팝업 오늘 하루 안보기 데이터를 로컬 세이브에 저장" style="rounded=1;whiteSpace=wrap;html=1;" vertex="1" parent="hDPYIisuoytdxOGGVnbc-3">
          <mxGeometry x="10" y="310" width="159" height="60" as="geometry" />
        </mxCell>
        <mxCell id="23xOXwe0LaK21AtvZ5Q6-1" value="컨텐츠 언락 기반으로 배율 낚시 기능 오픈" style="rounded=1;whiteSpace=wrap;html=1;" parent="hDPYIisuoytdxOGGVnbc-3" vertex="1">
          <mxGeometry x="10" y="380" width="159" height="60" as="geometry" />
        </mxCell>
        <mxCell id="8IGrAw701jnbkH6kilL0-2" value="낚시 시작할 때 미끼 갯수 저장" style="rounded=1;whiteSpace=wrap;html=1;" parent="hDPYIisuoytdxOGGVnbc-3" vertex="1">
          <mxGeometry x="10" y="450" width="159" height="60" as="geometry" />
        </mxCell>
        <mxCell id="8IGrAw701jnbkH6kilL0-3" value="배율 기능에 따른 미끼 소모 갯수 정보 패킷에 추가" style="rounded=1;whiteSpace=wrap;html=1;" parent="hDPYIisuoytdxOGGVnbc-3" vertex="1">
          <mxGeometry x="10" y="520" width="159" height="60" as="geometry" />
        </mxCell>
        <mxCell id="6kkVd8V_ymKgZ0_L0vxy-3" value="My Comment" style="swimlane;" parent="1" vertex="1">
          <mxGeometry x="49" y="730" width="1071" height="260" as="geometry">
            <mxRectangle x="49" y="720" width="100" height="23" as="alternateBounds" />
          </mxGeometry>
        </mxCell>
        <mxCell id="KfCYHrgsOKh0RXw9eGPa-2" value="&lt;h1&gt;Memo&lt;/h1&gt;&lt;div&gt;&lt;br&gt;&lt;/div&gt;" style="text;html=1;strokeColor=none;fillColor=none;spacing=5;spacingTop=-20;whiteSpace=wrap;overflow=hidden;rounded=0;align=left;" parent="6kkVd8V_ymKgZ0_L0vxy-3" vertex="1">
          <mxGeometry x="1" y="20" width="1070" height="240" as="geometry" />
        </mxCell>
        <mxCell id="oumLD8d3DvaTa1NXrWpt-27" value="Tool" style="swimlane;horizontal=0;" parent="1" vertex="1">
          <mxGeometry x="850" y="50" width="270" height="380" as="geometry" />
        </mxCell>
        <mxCell id="oumLD8d3DvaTa1NXrWpt-31" value="" style="group" parent="oumLD8d3DvaTa1NXrWpt-27" vertex="1" connectable="0">
          <mxGeometry x="31" y="90" width="220" height="80" as="geometry" />
        </mxCell>
        <mxCell id="oumLD8d3DvaTa1NXrWpt-28" value="" style="rounded=1;whiteSpace=wrap;html=1;" parent="oumLD8d3DvaTa1NXrWpt-31" vertex="1">
          <mxGeometry width="159" height="60" as="geometry" />
        </mxCell>
        <mxCell id="oumLD8d3DvaTa1NXrWpt-29" value="" style="rounded=0;whiteSpace=wrap;html=1;" parent="oumLD8d3DvaTa1NXrWpt-31" vertex="1">
          <mxGeometry x="100" y="60" width="120" height="20" as="geometry" />
        </mxCell>
        <mxCell id="oumLD8d3DvaTa1NXrWpt-30" value="" style="rounded=0;whiteSpace=wrap;html=1;" parent="oumLD8d3DvaTa1NXrWpt-31" vertex="1">
          <mxGeometry x="100" y="40" width="120" height="20" as="geometry" />
        </mxCell>
        <mxCell id="oumLD8d3DvaTa1NXrWpt-32" value="" style="swimlane;fillColor=#dae8fc;strokeColor=#6c8ebf;" parent="oumLD8d3DvaTa1NXrWpt-27" vertex="1" collapsed="1">
          <mxGeometry x="31.5" y="180" width="50" height="40" as="geometry">
            <mxRectangle x="31.5" y="180" width="219.5" height="60" as="alternateBounds" />
          </mxGeometry>
        </mxCell>
        <mxCell id="oumLD8d3DvaTa1NXrWpt-34" value="" style="swimlane;" parent="oumLD8d3DvaTa1NXrWpt-27" vertex="1" collapsed="1">
          <mxGeometry x="31" y="260" width="50" height="40" as="geometry">
            <mxRectangle x="31" y="260" width="219" height="50" as="alternateBounds" />
          </mxGeometry>
        </mxCell>
        <mxCell id="Fb32EvJjGHJRLybvlaYY-3" value="Text" style="text;html=1;align=left;verticalAlign=middle;resizable=0;points=[];autosize=1;strokeColor=none;" parent="oumLD8d3DvaTa1NXrWpt-27" vertex="1">
          <mxGeometry x="220" y="20" width="40" height="20" as="geometry" />
        </mxCell>
        <mxCell id="tH88tRurDEZZYX3UZ1Wb-1" value="" style="rounded=1;whiteSpace=wrap;html=1;" parent="oumLD8d3DvaTa1NXrWpt-27" vertex="1">
          <mxGeometry x="31" y="20" width="159" height="60" as="geometry" />
        </mxCell>
        <mxCell id="8vmb4RLjWRvc2X2qJKQM-1" value="" style="rounded=1;whiteSpace=wrap;html=1;fillColor=#f8cecc;strokeColor=#b85450;" parent="oumLD8d3DvaTa1NXrWpt-27" vertex="1">
          <mxGeometry x="101" y="210" width="159" height="60" as="geometry" />
        </mxCell>
      </root>
    </mxGraphModel>
  </diagram>
</mxfile>
